# xmcd
#
# Track frame offsets: 
#        150
#        24300
#        35255
#        46859
#        50523
#        63614
#        67857
#        72548
#        76142
#        93255
#        111690
#        135282
#        143924
#        153904
#        162911
#        175440
#
# Disc length: 2719 seconds
#
# Revision: 0
# Processed by: cddbd v1.5.2PL0 Copyright (c) Steve Scherf et al.
# Submitted via: ExactAudioCopyFreeDBPlugin 1.0
#
DISCID=d50a9d10
DTITLE=Gena - Raki e Lot
DYEAR=2013
DGENRE=Alternative
TTITLE0=Kush niset me bo sefa
TTITLE1=Emine Emine
TTITLE2=Raki e Lot
TTITLE3=Thuam sa të dua
TTITLE4=Moj shami e kuqe
TTITLE5=Lala tëka gjan
TTITLE6=Moj unaza
TTITLE7=Her me pare her pa pare
TTITLE8=Ajo
TTITLE9=Të dashuroj
TTITLE10=I mjeri fukara
TTITLE11=Aman Gjermani
TTITLE12=Jam deh me raki
TTITLE13=O zambak i bardh
TTITLE14=Çke moj fiti
TTITLE15=O gurbet
EXTD=
EXTT0=
EXTT1=
EXTT2=
EXTT3=
EXTT4=
EXTT5=
EXTT6=
EXTT7=
EXTT8=
EXTT9=
EXTT10=
EXTT11=
EXTT12=
EXTT13=
EXTT14=
EXTT15=
PLAYORDER=
